<svg width="121" height="396" viewBox="0 0 121 396" fill="none" xmlns="http://www.w3.org/2000/svg">
<rect x="0.5" width="120" height="120" rx="60" fill="white" fill-opacity="0.7"/>
<path d="M32.9273 63.04H30.6873V67H27.9273V53.4H32.9273C36.1539 53.4 37.7673 54.9733 37.7673 58.12C37.7673 59.7067 37.3539 60.9267 36.5273 61.78C35.7139 62.62 34.5139 63.04 32.9273 63.04ZM30.6873 60.68H32.9073C34.2806 60.68 34.9673 59.8267 34.9673 58.12C34.9673 57.28 34.8006 56.68 34.4673 56.32C34.1339 55.9467 33.6139 55.76 32.9073 55.76H30.6873V60.68ZM39.4646 67V57H42.1246V58.06C43.2446 57.3933 44.3113 56.96 45.3246 56.76V59.46C44.2446 59.6867 43.3179 59.92 42.5446 60.16L42.1446 60.3V67H39.4646ZM47.446 58.14C48.1527 57.22 49.3327 56.76 50.986 56.76C52.6393 56.76 53.8193 57.22 54.526 58.14C55.2327 59.0467 55.586 60.3267 55.586 61.98C55.586 65.4867 54.0527 67.24 50.986 67.24C47.9193 67.24 46.386 65.4867 46.386 61.98C46.386 60.3267 46.7393 59.0467 47.446 58.14ZM49.506 64.24C49.786 64.72 50.2793 64.96 50.986 64.96C51.6927 64.96 52.1793 64.72 52.446 64.24C52.726 63.76 52.866 63.0067 52.866 61.98C52.866 60.9533 52.726 60.2067 52.446 59.74C52.1793 59.2733 51.6927 59.04 50.986 59.04C50.2793 59.04 49.786 59.2733 49.506 59.74C49.2393 60.2067 49.106 60.9533 49.106 61.98C49.106 63.0067 49.2393 63.76 49.506 64.24ZM66.0505 53V67H63.3905V66.58C62.4572 67.02 61.6505 67.24 60.9705 67.24C59.5172 67.24 58.5039 66.82 57.9305 65.98C57.3572 65.14 57.0705 63.8133 57.0705 62C57.0705 60.1733 57.4105 58.8467 58.0905 58.02C58.7839 57.18 59.8239 56.76 61.2105 56.76C61.6372 56.76 62.2305 56.8267 62.9905 56.96L63.3705 57.04V53H66.0505ZM63.0905 64.6L63.3705 64.54V59.28C62.6372 59.1467 61.9839 59.08 61.4105 59.08C60.3305 59.08 59.7905 60.04 59.7905 61.96C59.7905 63 59.9105 63.74 60.1505 64.18C60.3905 64.62 60.7839 64.84 61.3305 64.84C61.8905 64.84 62.4772 64.76 63.0905 64.6ZM74.4271 57H77.1071V67H74.4471V66.44C73.4871 66.9733 72.6538 67.24 71.9471 67.24C70.5604 67.24 69.6271 66.86 69.1471 66.1C68.6671 65.3267 68.4271 64.04 68.4271 62.24V57H71.1071V62.28C71.1071 63.2667 71.1871 63.94 71.3471 64.3C71.5071 64.66 71.8938 64.84 72.5071 64.84C73.0938 64.84 73.6471 64.7467 74.1671 64.56L74.4271 64.48V57ZM83.3218 56.76C84.0151 56.76 84.9018 56.8667 85.9818 57.08L86.5218 57.2L86.4418 59.32C85.3885 59.2133 84.6085 59.16 84.1018 59.16C83.1818 59.16 82.5685 59.36 82.2618 59.76C81.9685 60.1467 81.8218 60.8867 81.8218 61.98C81.8218 63.0733 81.9685 63.8267 82.2618 64.24C82.5685 64.64 83.1885 64.84 84.1218 64.84L86.4418 64.68L86.5218 66.82C85.0951 67.1 84.0085 67.24 83.2618 67.24C81.7818 67.24 80.7151 66.8267 80.0618 66C79.4218 65.16 79.1018 63.82 79.1018 61.98C79.1018 60.14 79.4351 58.8133 80.1018 58C80.7685 57.1733 81.8418 56.76 83.3218 56.76ZM94.0476 59.28H91.5876V63.38C91.5876 63.78 91.5942 64.0667 91.6076 64.24C91.6342 64.4 91.7076 64.54 91.8276 64.66C91.9609 64.78 92.1609 64.84 92.4276 64.84L93.9476 64.8L94.0676 66.94C93.1742 67.14 92.4942 67.24 92.0276 67.24C90.8276 67.24 90.0076 66.9733 89.5676 66.44C89.1276 65.8933 88.9076 64.8933 88.9076 63.44V59.28H87.7276V57H88.9076V54.22H91.5876V57H94.0476V59.28Z" fill="#071C31"/>
<rect x="0.5" y="92" width="120" height="120" rx="60" fill="white" fill-opacity="0.7"/>
<path d="M37.439 155.04H35.199V159H32.439V145.4H37.439C40.6657 145.4 42.279 146.973 42.279 150.12C42.279 151.707 41.8657 152.927 41.039 153.78C40.2257 154.62 39.0257 155.04 37.439 155.04ZM35.199 152.68H37.419C38.7923 152.68 39.479 151.827 39.479 150.12C39.479 149.28 39.3123 148.68 38.979 148.32C38.6457 147.947 38.1257 147.76 37.419 147.76H35.199V152.68ZM46.1763 155.14C46.1897 155.753 46.3497 156.2 46.6563 156.48C46.9763 156.747 47.4297 156.88 48.0163 156.88C49.2563 156.88 50.363 156.84 51.3363 156.76L51.8963 156.7L51.9363 158.68C50.403 159.053 49.0163 159.24 47.7763 159.24C46.2697 159.24 45.1763 158.84 44.4963 158.04C43.8163 157.24 43.4763 155.94 43.4763 154.14C43.4763 150.553 44.9497 148.76 47.8963 148.76C50.803 148.76 52.2563 150.267 52.2563 153.28L52.0563 155.14H46.1763ZM49.6163 153.1C49.6163 152.3 49.4897 151.747 49.2363 151.44C48.983 151.12 48.5363 150.96 47.8963 150.96C47.2697 150.96 46.823 151.127 46.5563 151.46C46.303 151.78 46.1697 152.327 46.1563 153.1H49.6163ZM54.7116 150.14C55.4183 149.22 56.5983 148.76 58.2516 148.76C59.905 148.76 61.085 149.22 61.7916 150.14C62.4983 151.047 62.8516 152.327 62.8516 153.98C62.8516 157.487 61.3183 159.24 58.2516 159.24C55.185 159.24 53.6516 157.487 53.6516 153.98C53.6516 152.327 54.005 151.047 54.7116 150.14ZM56.7716 156.24C57.0516 156.72 57.545 156.96 58.2516 156.96C58.9583 156.96 59.445 156.72 59.7116 156.24C59.9916 155.76 60.1316 155.007 60.1316 153.98C60.1316 152.953 59.9916 152.207 59.7116 151.74C59.445 151.273 58.9583 151.04 58.2516 151.04C57.545 151.04 57.0516 151.273 56.7716 151.74C56.505 152.207 56.3716 152.953 56.3716 153.98C56.3716 155.007 56.505 155.76 56.7716 156.24ZM64.8162 163.2V149H67.4762V149.54C68.3428 149.02 69.1028 148.76 69.7562 148.76C71.1028 148.76 72.0962 149.167 72.7362 149.98C73.3762 150.78 73.6962 152.147 73.6962 154.08C73.6962 156.013 73.3428 157.36 72.6362 158.12C71.9295 158.867 70.7695 159.24 69.1562 159.24C68.7162 159.24 68.2428 159.2 67.7362 159.12L67.4962 159.08V163.2H64.8162ZM69.2362 151.16C68.7428 151.16 68.2428 151.26 67.7362 151.46L67.4962 151.56V156.8C68.0962 156.88 68.5828 156.92 68.9562 156.92C69.7295 156.92 70.2562 156.693 70.5362 156.24C70.8295 155.787 70.9762 155.013 70.9762 153.92C70.9762 152.08 70.3962 151.16 69.2362 151.16ZM75.8151 159V145H78.4951V159H75.8151ZM83.2857 155.14C83.299 155.753 83.459 156.2 83.7657 156.48C84.0857 156.747 84.539 156.88 85.1257 156.88C86.3657 156.88 87.4724 156.84 88.4457 156.76L89.0057 156.7L89.0457 158.68C87.5124 159.053 86.1257 159.24 84.8857 159.24C83.379 159.24 82.2857 158.84 81.6057 158.04C80.9257 157.24 80.5857 155.94 80.5857 154.14C80.5857 150.553 82.059 148.76 85.0057 148.76C87.9124 148.76 89.3657 150.267 89.3657 153.28L89.1657 155.14H83.2857ZM86.7257 153.1C86.7257 152.3 86.599 151.747 86.3457 151.44C86.0924 151.12 85.6457 150.96 85.0057 150.96C84.379 150.96 83.9324 151.127 83.6657 151.46C83.4124 151.78 83.279 152.327 83.2657 153.1H86.7257Z" fill="#071C31"/>
<rect x="0.5" y="184" width="120" height="120" rx="60" fill="white" fill-opacity="0.7"/>
<path d="M39.48 247.04H37.24V251H34.48V237.4H39.48C42.7067 237.4 44.32 238.973 44.32 242.12C44.32 243.707 43.9067 244.927 43.08 245.78C42.2667 246.62 41.0667 247.04 39.48 247.04ZM37.24 244.68H39.46C40.8333 244.68 41.52 243.827 41.52 242.12C41.52 241.28 41.3533 240.68 41.02 240.32C40.6867 239.947 40.1667 239.76 39.46 239.76H37.24V244.68ZM46.1373 251V237H48.8173V251H46.1373ZM59.068 244.12V248.28C59.0946 248.6 59.148 248.827 59.228 248.96C59.308 249.08 59.4746 249.167 59.728 249.22L59.648 251.24C58.968 251.24 58.4213 251.193 58.008 251.1C57.608 251.007 57.2013 250.82 56.788 250.54C55.828 251.007 54.848 251.24 53.848 251.24C51.7813 251.24 50.748 250.147 50.748 247.96C50.748 246.893 51.0346 246.14 51.608 245.7C52.1813 245.247 53.0613 244.98 54.248 244.9L56.388 244.74V244.12C56.388 243.707 56.2946 243.427 56.108 243.28C55.9213 243.12 55.6213 243.04 55.208 243.04L51.448 243.2L51.368 241.34C52.7946 240.953 54.148 240.76 55.428 240.76C56.7213 240.76 57.648 241.027 58.208 241.56C58.7813 242.093 59.068 242.947 59.068 244.12ZM54.568 246.76C53.8213 246.827 53.448 247.227 53.448 247.96C53.448 248.693 53.7746 249.06 54.428 249.06C54.9346 249.06 55.488 248.98 56.088 248.82L56.388 248.74V246.6L54.568 246.76ZM60.5661 241H63.2061L65.0261 248.72H65.4861L67.3061 241H69.9461L66.4261 255.2H63.8061L64.9061 251H63.0261L60.5661 241ZM73.5298 247.14C73.5432 247.753 73.7032 248.2 74.0098 248.48C74.3298 248.747 74.7832 248.88 75.3698 248.88C76.6098 248.88 77.7165 248.84 78.6898 248.76L79.2498 248.7L79.2898 250.68C77.7565 251.053 76.3698 251.24 75.1298 251.24C73.6232 251.24 72.5298 250.84 71.8498 250.04C71.1698 249.24 70.8298 247.94 70.8298 246.14C70.8298 242.553 72.3032 240.76 75.2498 240.76C78.1565 240.76 79.6098 242.267 79.6098 245.28L79.4098 247.14H73.5298ZM76.9698 245.1C76.9698 244.3 76.8432 243.747 76.5898 243.44C76.3365 243.12 75.8898 242.96 75.2498 242.96C74.6232 242.96 74.1765 243.127 73.9098 243.46C73.6565 243.78 73.5232 244.327 73.5098 245.1H76.9698ZM81.5252 251V241H84.1852V242.06C85.3052 241.393 86.3718 240.96 87.3852 240.76V243.46C86.3052 243.687 85.3785 243.92 84.6052 244.16L84.2052 244.3V251H81.5252Z" fill="#071C31"/>
<rect x="0.5" y="276" width="120" height="120" rx="60" fill="white" fill-opacity="0.7"/>
<path d="M32.98 339.04H30.74V343H27.98V329.4H32.98C36.2067 329.4 37.82 330.973 37.82 334.12C37.82 335.707 37.4067 336.927 36.58 337.78C35.7667 338.62 34.5667 339.04 32.98 339.04ZM30.74 336.68H32.96C34.3333 336.68 35.02 335.827 35.02 334.12C35.02 333.28 34.8533 332.68 34.52 332.32C34.1867 331.947 33.6667 331.76 32.96 331.76H30.74V336.68ZM39.5173 343V333H42.1773V334.06C43.2973 333.393 44.364 332.96 45.3773 332.76V335.46C44.2973 335.687 43.3707 335.92 42.5973 336.16L42.1973 336.3V343H39.5173ZM47.4988 334.14C48.2054 333.22 49.3854 332.76 51.0388 332.76C52.6921 332.76 53.8721 333.22 54.5788 334.14C55.2854 335.047 55.6388 336.327 55.6388 337.98C55.6388 341.487 54.1054 343.24 51.0388 343.24C47.9721 343.24 46.4388 341.487 46.4388 337.98C46.4388 336.327 46.7921 335.047 47.4988 334.14ZM49.5588 340.24C49.8388 340.72 50.3321 340.96 51.0388 340.96C51.7454 340.96 52.2321 340.72 52.4988 340.24C52.7788 339.76 52.9188 339.007 52.9188 337.98C52.9188 336.953 52.7788 336.207 52.4988 335.74C52.2321 335.273 51.7454 335.04 51.0388 335.04C50.3321 335.04 49.8388 335.273 49.5588 335.74C49.2921 336.207 49.1588 336.953 49.1588 337.98C49.1588 339.007 49.2921 339.76 49.5588 340.24ZM61.3433 332.76C62.0366 332.76 62.9233 332.867 64.0033 333.08L64.5433 333.2L64.4633 335.32C63.4099 335.213 62.6299 335.16 62.1233 335.16C61.2033 335.16 60.5899 335.36 60.2833 335.76C59.9899 336.147 59.8433 336.887 59.8433 337.98C59.8433 339.073 59.9899 339.827 60.2833 340.24C60.5899 340.64 61.2099 340.84 62.1433 340.84L64.4633 340.68L64.5433 342.82C63.1166 343.1 62.0299 343.24 61.2833 343.24C59.8033 343.24 58.7366 342.827 58.0833 342C57.4433 341.16 57.1233 339.82 57.1233 337.98C57.1233 336.14 57.4566 334.813 58.1233 334C58.7899 333.173 59.8633 332.76 61.3433 332.76ZM68.6509 339.14C68.6643 339.753 68.8243 340.2 69.1309 340.48C69.4509 340.747 69.9043 340.88 70.4909 340.88C71.7309 340.88 72.8376 340.84 73.8109 340.76L74.3709 340.7L74.4109 342.68C72.8776 343.053 71.4909 343.24 70.2509 343.24C68.7443 343.24 67.6509 342.84 66.9709 342.04C66.2909 341.24 65.9509 339.94 65.9509 338.14C65.9509 334.553 67.4243 332.76 70.3709 332.76C73.2776 332.76 74.7309 334.267 74.7309 337.28L74.5309 339.14H68.6509ZM72.0909 337.1C72.0909 336.3 71.9643 335.747 71.7109 335.44C71.4576 335.12 71.0109 334.96 70.3709 334.96C69.7443 334.96 69.2976 335.127 69.0309 335.46C68.7776 335.78 68.6443 336.327 68.6309 337.1H72.0909ZM83.8263 335.5C82.1729 335.287 81.0129 335.18 80.3463 335.18C79.6929 335.18 79.2663 335.24 79.0663 335.36C78.8796 335.48 78.7863 335.673 78.7863 335.94C78.7863 336.193 78.9129 336.373 79.1663 336.48C79.4329 336.573 80.0996 336.72 81.1663 336.92C82.2463 337.107 83.0129 337.42 83.4663 337.86C83.9196 338.3 84.1463 339.013 84.1463 340C84.1463 342.16 82.8063 343.24 80.1263 343.24C79.2463 343.24 78.1796 343.12 76.9263 342.88L76.2863 342.76L76.3663 340.52C78.0196 340.733 79.1663 340.84 79.8063 340.84C80.4596 340.84 80.8996 340.78 81.1263 340.66C81.3663 340.527 81.4863 340.333 81.4863 340.08C81.4863 339.827 81.3596 339.64 81.1063 339.52C80.8663 339.4 80.2263 339.253 79.1863 339.08C78.1596 338.907 77.3929 338.613 76.8863 338.2C76.3796 337.787 76.1263 337.053 76.1263 336C76.1263 334.933 76.4863 334.133 77.2063 333.6C77.9263 333.053 78.8529 332.78 79.9863 332.78C80.7729 332.78 81.8463 332.907 83.2063 333.16L83.8663 333.28L83.8263 335.5ZM93.2598 335.5C91.6065 335.287 90.4465 335.18 89.7798 335.18C89.1265 335.18 88.6998 335.24 88.4998 335.36C88.3132 335.48 88.2198 335.673 88.2198 335.94C88.2198 336.193 88.3465 336.373 88.5998 336.48C88.8665 336.573 89.5332 336.72 90.5998 336.92C91.6798 337.107 92.4465 337.42 92.8998 337.86C93.3532 338.3 93.5798 339.013 93.5798 340C93.5798 342.16 92.2398 343.24 89.5598 343.24C88.6798 343.24 87.6132 343.12 86.3598 342.88L85.7198 342.76L85.7998 340.52C87.4532 340.733 88.5998 340.84 89.2398 340.84C89.8932 340.84 90.3332 340.78 90.5598 340.66C90.7998 340.527 90.9198 340.333 90.9198 340.08C90.9198 339.827 90.7932 339.64 90.5398 339.52C90.2998 339.4 89.6598 339.253 88.6198 339.08C87.5932 338.907 86.8265 338.613 86.3198 338.2C85.8132 337.787 85.5598 337.053 85.5598 336C85.5598 334.933 85.9198 334.133 86.6398 333.6C87.3598 333.053 88.2865 332.78 89.4198 332.78C90.2065 332.78 91.2798 332.907 92.6398 333.16L93.2998 333.28L93.2598 335.5Z" fill="#071C31"/>
</svg>
