<svg width="32" height="32" viewBox="0 0 32 32" fill="none" xmlns="http://www.w3.org/2000/svg">
<path fill-rule="evenodd" clip-rule="evenodd" d="M29.7798 8.09615C27.3198 6.5224 19.9161 2.4674 17.2798 1.06053C16.6748 0.823028 14.3511 1.23928 14.3511 1.23928L2.72797 8.2474L1.63672 11.9849V23.1968L2.63234 24.1712C2.63234 24.1712 11.8755 29.5412 14.458 31.0962C14.9886 31.4155 16.1723 31.6987 16.3686 31.7393C16.8061 31.4793 20.288 29.9674 20.5648 29.7393C21.1667 29.3787 30.1717 24.418 30.1717 24.418C30.1717 24.418 30.1855 21.3974 30.3967 18.6087C30.7105 14.4655 31.1005 9.31615 31.1005 9.31615C31.1005 9.31615 30.2573 8.40303 29.7792 8.09678L29.7798 8.09615ZM27.8155 21.3818L26.6723 22.5962L17.9223 27.7393L16.003 28.2393L6.07797 22.663L4.96797 21.5955L5.17297 11.2399L6.35172 9.59678L15.1367 3.84615L17.2798 3.70303L27.7292 9.84865L28.2842 10.9162L27.8155 21.3812V21.3818Z" fill="white" fill-opacity="0.2"/>
<path fill-rule="evenodd" clip-rule="evenodd" d="M10.8906 9.97L13.5337 11.0412L13.8906 11.7912L13.0694 12.7912C13.0694 12.7912 14.855 16.3981 14.9625 16.3625C15.07 16.3269 16.5875 18.8906 16.5875 18.8906L19.4625 14.7194L20.8556 12.2194L20.3556 11.255L22.6056 11.0406L24.2487 10.6838L23.8556 14.2906L22.645 13.84L20.2837 18.6781L17.0975 23.8319L15.3194 23.4694L12.7837 17.505L11.355 13.8263L10.2837 13.8975L9.89062 10.6119L10.0337 9.71875L10.8906 9.96875V9.97Z" fill="white" fill-opacity="0.2"/>
</svg>
