<svg width="32" height="32" viewBox="0 0 32 32" fill="none" xmlns="http://www.w3.org/2000/svg">
<path fill-rule="evenodd" clip-rule="evenodd" d="M29.7805 8.09772C27.318 6.52272 19.918 2.46646 17.2805 1.06021C16.6742 0.822715 14.3492 1.24146 14.3492 1.24146L2.73047 8.24771L1.63672 11.9852V23.1977L2.63047 24.1727C2.63047 24.1727 11.8742 29.5415 14.4555 31.0977C14.9867 31.4165 16.168 31.6977 16.368 31.7415C16.8055 31.479 20.2867 29.9665 20.5617 29.7415C21.1617 29.379 30.168 24.4227 30.168 24.4227C30.168 24.4227 30.1805 21.404 30.393 18.6102C30.7055 14.4665 31.0992 9.31647 31.0992 9.31647C31.0992 9.31647 30.2555 8.40397 29.7805 8.09772ZM27.818 21.379L26.6742 22.5915L17.9242 27.7352L16.0055 28.2352L6.08047 22.6602L4.96797 21.5915L5.17422 11.2352L6.35547 9.59146L15.1367 3.84771L17.2805 3.70396L27.7305 9.84772L28.2867 10.9165L27.818 21.379Z" fill="white" fill-opacity="0.2"/>
<path fill-rule="evenodd" clip-rule="evenodd" d="M11.6992 13.8166L12.9492 12.5666L22.9305 9.0791L23.6805 10.2666V21.9791L22.4305 22.9166L13.2617 19.9166L11.7617 18.7291L11.6992 13.8166Z" fill="white" fill-opacity="0.2"/>
<path fill-rule="evenodd" clip-rule="evenodd" d="M11.2516 18.2604V14.0479L8.07031 14.3229V17.8729" fill="white" fill-opacity="0.2"/>
</svg>
