<?xml version="1.0" encoding="UTF-8"?>
<svg xmlns="http://www.w3.org/2000/svg" version="1.1" viewBox="0 0 512 512">
  <!-- Generator: Adobe Illustrator 28.7.1, SVG Export Plug-In . SVG Version: 1.2.0 Build 142)  -->
  <g>
    <g>
      <g>
        <path d="M476.43,129.57c-39.36-25.18-157.82-90.06-200-112.57-9.68-3.8-46.86,2.86-46.86,2.86L43.6,131.99l-17.46,59.8v179.39l15.93,15.59s147.89,85.92,189.21,110.8c8.49,5.11,27.43,9.64,30.57,10.29,7-4.16,62.71-28.35,67.14-32,9.63-5.77,153.71-85.14,153.71-85.14,0,0,.22-48.33,3.6-92.95,5.02-66.29,11.26-148.68,11.26-148.68,0,0-13.49-14.61-21.14-19.51ZM445,342.14l-18.29,19.43-140,82.29-30.71,8-158.8-89.22-17.76-17.08,3.28-165.69,18.86-26.29L242.14,61.57l34.29-2.29,167.19,98.33,8.88,17.08-7.5,167.44Z"/>
      </g>
      <path d="M104.43,206.78v107.5l9.57,8.96,28.71-17.92v-89.58l-9.57-26.87-28.71,17.92ZM171.43,161.99v188.12l28.71,17.92,9.57-8.96v-179.16l-28.71-35.83-9.57,17.92ZM248,117.2v53.75l9.57,232.91,28.71-26.87v-206.03l-9.57-71.66-28.71,17.92ZM324.57,135.12v214.99l38.29-26.87v-44.79l-9.57-107.5-28.71-35.83ZM401.14,188.87l-28.71-8.96,9.57,62.71v62.71h19.14l9.57-80.62-9.57-35.83Z"/>
    </g>
  </g>
</svg>