<svg width="32" height="32" viewBox="0 0 32 32" fill="none" xmlns="http://www.w3.org/2000/svg">
<g opacity="0.5">
<path fill-rule="evenodd" clip-rule="evenodd" d="M29.7759 8.09713C27.3159 6.52338 19.9122 2.46838 17.2759 1.0615C16.6709 0.824005 14.3472 1.24025 14.3472 1.24025L2.72406 8.24838L1.63281 11.9859V23.1978L2.62844 24.1721C2.62844 24.1721 11.8716 29.5421 14.4541 31.0971C14.9847 31.4165 16.1684 31.6996 16.3647 31.7403C16.8022 31.4803 20.2841 29.9684 20.5609 29.7403C21.1628 29.3796 30.1678 24.419 30.1678 24.419C30.1678 24.419 30.1816 21.3984 30.3928 18.6096C30.7066 14.4665 31.0966 9.31713 31.0966 9.31713C31.0966 9.31713 30.2534 8.40401 29.7753 8.09776L29.7759 8.09713ZM27.8116 21.3828L26.6684 22.5971L17.9184 27.7403L15.9991 28.2403L6.07406 22.664L4.96406 21.5965L5.16906 11.2409L6.34781 9.59776L15.1328 3.84713L17.2759 3.70401L27.7253 9.84963L28.2803 10.9171L27.8116 21.3821V21.3828Z" fill="#EAEAEA"/>
<path fill-rule="evenodd" clip-rule="evenodd" d="M10.1328 11.3389L12.0616 9.83887L13.3472 10.2314L16.9184 14.2676L22.1328 21.0532V22.9101L19.6328 22.1957L13.7047 14.6957L10.4903 12.2314L10.1328 11.3389Z" fill="#EAEAEA"/>
<path fill-rule="evenodd" clip-rule="evenodd" d="M7.9375 20.3683L8.14875 22.3008L12.3319 21.3345L24.3194 13.4695L25.08 12.1352L24.2344 9.97266L21.5725 11.0308L10.7681 18.4814L7.9375 20.3683Z" fill="#EAEAEA"/>
</g>
</svg>
