<svg xmlns="http://www.w3.org/2000/svg" version="1.1" viewBox="0 0 512 512">
  <defs fill="#000000">
    <style>
      .cls-1 {
        stroke: #eaeaea;
        stroke-miterlimit: 10;
      }

      .cls-1, .cls-2 {
        fill: #eaeaea;
        fill-rule: evenodd;
      }

      .cls-3 {
        display: none;
      }
    </style>
  </defs>
  <!-- Generator: Adobe Illustrator 28.7.1, SVG Export Plug-In . SVG Version: 1.2.0 Build 142)  -->
  <g>
    <g id="Layer_1">
      <g id="Base">
        <path class="cls-2" d="M476.43,129.57c-39.36-25.18-157.82-90.06-200-112.57-9.68-3.8-46.86,2.86-46.86,2.86L43.6,131.99l-17.46,59.8v179.39l15.93,15.59s147.89,85.92,189.21,110.8c8.49,5.11,27.43,9.64,30.57,10.29,7-4.16,62.71-28.35,67.14-32,9.63-5.77,153.71-85.14,153.71-85.14,0,0,.22-48.33,3.6-92.95,5.02-66.29,11.26-148.68,11.26-148.68,0,0-13.49-14.61-21.14-19.51ZM445,342.14l-18.29,19.43-140,82.29-30.71,8-158.8-89.22-17.76-17.08,3.28-165.69,18.86-26.29L242.14,61.57l34.29-2.29,167.19,98.33,8.88,17.08-7.5,167.44Z" fill="#000000"/>
      </g>
      <g class="cls-3">
        <path class="cls-2" d="M476.43,129.57c-39.36-25.18-157.82-90.06-200-112.57-9.68-3.8-46.86,2.86-46.86,2.86L43.6,131.99l-17.46,59.8v179.39l15.93,15.59s147.89,85.92,189.21,110.8c8.49,5.11,27.43,9.64,30.57,10.29,7-4.16,62.71-28.35,67.14-32,9.63-5.77,153.71-85.14,153.71-85.14,0,0,.22-48.33,3.6-92.95,5.02-66.29,11.26-148.68,11.26-148.68,0,0-13.49-14.61-21.14-19.51ZM445,342.14l-18.29,19.43-140,82.29-30.71,8-158.8-89.22-17.76-17.08,3.28-165.69,18.86-26.29L242.14,61.57l34.29-2.29,167.19,98.33,8.88,17.08-7.5,167.44ZM301.5,225.96h-115.47l-35.53,17.08s3.4,2.73,8.49,6.8c15.04,12.05,44.8,35.91,44.8,35.91h186.53l-44.41-51.25-44.41-8.54Z" fill="#000000"/>
      </g>
      <g class="cls-3">
        <path class="cls-2" d="M104.43,206.78v107.5l9.57,8.96,28.71-17.92v-89.58l-9.57-26.87-28.71,17.92ZM171.43,161.99v188.12l28.71,17.92,9.57-8.96v-179.16l-28.71-35.83-9.57,17.92ZM248,117.2v53.75l9.57,232.91,28.71-26.87v-206.03l-9.57-71.66-28.71,17.92ZM324.57,135.12v214.99l38.29-26.87v-44.79l-9.57-107.5-28.71-35.83ZM401.14,188.87l-28.71-8.96,9.57,62.71v62.71h19.14l9.57-80.62-9.57-35.83Z" fill="#000000"/>
      </g>
      <g class="cls-3">
        <path class="cls-2" d="M238.25,207.99v97.92l18.48,9.79,27.72-9.79v-39.17l9.24-58.75h18.48l9.24-9.79-27.72-39.17-18.48-29.38-27.72,19.58-36.96,48.96,9.24,9.79h18.48ZM395.34,198.19l-46.21-29.38-9.24,9.79,9.24,117.5-73.93,48.96h-27.72l-73.93-58.75,9.24-48.96v-68.54h-9.24l-46.21,29.38v97.92l9.24,19.58,110.89,78.33h27.72l110.89-78.33,18.48-19.58-9.24-97.92Z" fill="#000000"/>
      </g>
      <g id="Reserve">
        <path class="cls-2" d="M233.91,156.54l59.47.1,15.32-11.43-6.29-49.66-29.72-42.06-19.82-.03-37.86,38.13,2.68,57.29,16.22,7.67ZM234.84,91.61l27.04-15.23,20.72,19.13-6.32,34.36-43.26,7.57,1.82-45.83ZM348.5,257.36l-8.44-8.97-25.33-35.87-16.88-17.94h-67.54l-33.77,62.78v8.97l33.77,53.81,16.88,8.97,59.09-8.97,8.44-8.97,33.77-53.81ZM274.41,279.78h-16.88l-8.44-26.9,16.88-8.97,16.88,8.97-8.44,26.9ZM278.74,352.35l8.44,17.94,16.88-8.97-16.88-17.94-8.44,8.97ZM341.95,300.58h25.33v-26.9l-25.33,8.97v17.94ZM244.97,403.47l8.44,26.9h16.88l8.44-26.9-16.88-8.97-16.88,8.97ZM195.42,304.34l-8.44,17.94,8.44,17.94,25.33-17.94-8.44-17.94h-16.88ZM147.53,264.54l16.88,8.97,16.88,8.97v-26.9h-16.88l-16.88,8.97ZM249.78,340.21h-16.88l-8.44,17.94v8.97h25.33v-26.9ZM450.86,160.79l-49.85-20.07-51.75,24.73-.76,17.92,23.02,54.84,16.49,9.68,43.31-25.09,27.21-43.73-7.67-18.28ZM423.65,204.52l-34.12,7.53-23.78-36.92,42.93-16.13,24.54,19-9.58,26.52ZM311.19,338.6h25.33v-26.9l-25.33,8.97v17.94Z" fill="#000000"/>
      </g>
      <path class="cls-1" d="M192.69,181.38l-5.86-18.2-49.02-10.13-49.42,14.5-6.45,18.75,23.82,48.17,55.07,16.01,12.5-12.86,19.34-56.24ZM112.22,215.72l-5.66-30.51,24.81-13.41,30.47,17.11-6.84,43.38-42.77-16.56Z" fill="#000000"/>
    </g>
  </g>
</svg>