<?xml version="1.0" encoding="UTF-8"?>
<svg xmlns="http://www.w3.org/2000/svg" version="1.1" viewBox="0 0 512 512">
  <!-- Generator: Adobe Illustrator 28.7.1, SVG Export Plug-In . SVG Version: 1.2.0 Build 142)  -->
  <g>
    <g>
      <g>
        <path d="M476.43,129.57c-39.36-25.18-157.82-90.06-200-112.57-9.68-3.8-46.86,2.86-46.86,2.86L43.6,131.99l-17.46,59.8v179.39l15.93,15.59s147.89,85.92,189.21,110.8c8.49,5.11,27.43,9.64,30.57,10.29,7-4.16,62.71-28.35,67.14-32,9.63-5.77,153.71-85.14,153.71-85.14,0,0,.22-48.33,3.6-92.95,5.02-66.29,11.26-148.68,11.26-148.68,0,0-13.49-14.61-21.14-19.51ZM445,342.14l-18.29,19.43-140,82.29-30.71,8-158.8-89.22-17.76-17.08,3.28-165.69,18.86-26.29L242.14,61.57l34.29-2.29,167.19,98.33,8.88,17.08-7.5,167.44Z"/>
      </g>
      <g>
        <path d="M233.91,156.54l59.47.1,15.32-11.43-6.29-49.66-29.72-42.06-19.82-.03-37.86,38.13,2.68,57.29,16.22,7.67ZM234.84,91.61l27.04-15.23,20.72,19.13-6.32,34.36-43.26,7.57,1.82-45.83ZM348.5,257.36l-8.44-8.97-25.33-35.87-16.88-17.94h-67.54l-33.77,62.78v8.97l33.77,53.81,16.88,8.97,59.09-8.97,8.44-8.97,33.77-53.81ZM274.41,279.78h-16.88l-8.44-26.9,16.88-8.97,16.88,8.97-8.44,26.9ZM278.74,352.35l8.44,17.94,16.88-8.97-16.88-17.94-8.44,8.97ZM341.95,300.58h25.33v-26.9l-25.33,8.97v17.94ZM244.97,403.47l8.44,26.9h16.88l8.44-26.9-16.88-8.97-16.88,8.97ZM195.42,304.34l-8.44,17.94,8.44,17.94,25.33-17.94-8.44-17.94h-16.88ZM147.53,264.54l16.88,8.97,16.88,8.97v-26.9h-16.88l-16.88,8.97ZM249.78,340.21h-16.88l-8.44,17.94v8.97h25.33v-26.9ZM450.86,160.79l-49.85-20.07-51.75,24.73-.76,17.92,23.02,54.84,16.49,9.68,43.31-25.09,27.21-43.73-7.67-18.28ZM423.65,204.52l-34.12,7.53-23.78-36.92,42.93-16.13,24.54,19-9.58,26.52ZM311.19,338.6h25.33v-26.9l-25.33,8.97v17.94Z"/>
      </g>
      <path d="M192.69,181.38l-5.86-18.2-49.02-10.13-49.42,14.5-6.45,18.75,23.82,48.17,55.07,16.01,12.5-12.86,19.34-56.24ZM112.22,215.72l-5.66-30.51,24.81-13.41,30.47,17.11-6.84,43.38-42.77-16.56Z"/>
    </g>
  </g>
</svg>