<?xml version="1.0" encoding="UTF-8"?>
<svg xmlns="http://www.w3.org/2000/svg" version="1.1" viewBox="0 0 512 512">
  <!-- Generator: Adobe Illustrator 28.7.1, SVG Export Plug-In . SVG Version: 1.2.0 Build 142)  -->
  <g>
    <g>
      <g id="Base">
        <path d="M476.43,129.57c-39.36-25.18-157.82-90.06-200-112.57-9.68-3.8-46.86,2.86-46.86,2.86L43.6,131.99l-17.46,59.8v179.39l15.93,15.59s147.89,85.92,189.21,110.8c8.49,5.11,27.43,9.64,30.57,10.29,7-4.16,62.71-28.35,67.14-32,9.63-5.77,153.71-85.14,153.71-85.14,0,0,.22-48.33,3.6-92.95,5.02-66.29,11.26-148.68,11.26-148.68,0,0-13.49-14.61-21.14-19.51ZM445,342.14l-18.29,19.43-140,82.29-30.71,8-158.8-89.22-17.76-17.08,3.28-165.69,18.86-26.29L242.14,61.57l34.29-2.29,167.19,98.33,8.88,17.08-7.5,167.44Z"/>
      </g>
      <path d="M238.25,207.99v97.92l18.48,9.79,27.72-9.79v-39.17l9.24-58.75h18.48l9.24-9.79-27.72-39.17-18.48-29.38-27.72,19.58-36.96,48.96,9.24,9.79h18.48ZM395.34,198.19l-46.21-29.38-9.24,9.79,9.24,117.5-73.93,48.96h-27.72l-73.93-58.75,9.24-48.96v-68.54h-9.24l-46.21,29.38v97.92l9.24,19.58,110.89,78.33h27.72l110.89-78.33,18.48-19.58-9.24-97.92Z"/>
    </g>
  </g>
</svg>