<svg xmlns="http://www.w3.org/2000/svg" version="1.1" viewBox="0 0 512 512">
  <defs fill="#000000">
    <style>
      .cls-1 {
        fill: #eaeaea;
        fill-rule: evenodd;
      }

      .cls-2 {
        display: none;
      }
    </style>
  </defs>
  <!-- Generator: Adobe Illustrator 28.7.1, SVG Export Plug-In . SVG Version: 1.2.0 Build 142)  -->
  <g>
    <g id="Layer_1">
      <g id="Base">
        <path class="cls-1" d="M476.43,129.57c-39.36-25.18-157.82-90.06-200-112.57-9.68-3.8-46.86,2.86-46.86,2.86L43.6,131.99l-17.46,59.8v179.39l15.93,15.59s147.89,85.92,189.21,110.8c8.49,5.11,27.43,9.64,30.57,10.29,7-4.16,62.71-28.35,67.14-32,9.63-5.77,153.71-85.14,153.71-85.14,0,0,.22-48.33,3.6-92.95,5.02-66.29,11.26-148.68,11.26-148.68,0,0-13.49-14.61-21.14-19.51ZM445,342.14l-18.29,19.43-140,82.29-30.71,8-158.8-89.22-17.76-17.08,3.28-165.69,18.86-26.29L242.14,61.57l34.29-2.29,167.19,98.33,8.88,17.08-7.5,167.44Z" fill="#000000"/>
      </g>
      <g class="cls-2">
        <path class="cls-1" d="M476.43,129.57c-39.36-25.18-157.82-90.06-200-112.57-9.68-3.8-46.86,2.86-46.86,2.86L43.6,131.99l-17.46,59.8v179.39l15.93,15.59s147.89,85.92,189.21,110.8c8.49,5.11,27.43,9.64,30.57,10.29,7-4.16,62.71-28.35,67.14-32,9.63-5.77,153.71-85.14,153.71-85.14,0,0,.22-48.33,3.6-92.95,5.02-66.29,11.26-148.68,11.26-148.68,0,0-13.49-14.61-21.14-19.51ZM445,342.14l-18.29,19.43-140,82.29-30.71,8-158.8-89.22-17.76-17.08,3.28-165.69,18.86-26.29L242.14,61.57l34.29-2.29,167.19,98.33,8.88,17.08-7.5,167.44ZM301.5,225.96h-115.47l-35.53,17.08s3.4,2.73,8.49,6.8c15.04,12.05,44.8,35.91,44.8,35.91h186.53l-44.41-51.25-44.41-8.54Z" fill="#000000"/>
      </g>
      <g class="cls-2">
        <path class="cls-1" d="M104.43,206.78v107.5l9.57,8.96,28.71-17.92v-89.58l-9.57-26.87-28.71,17.92ZM171.43,161.99v188.12l28.71,17.92,9.57-8.96v-179.16l-28.71-35.83-9.57,17.92ZM248,117.2v53.75l9.57,232.91,28.71-26.87v-206.03l-9.57-71.66-28.71,17.92ZM324.57,135.12v214.99l38.29-26.87v-44.79l-9.57-107.5-28.71-35.83ZM401.14,188.87l-28.71-8.96,9.57,62.71v62.71h19.14l9.57-80.62-9.57-35.83Z" fill="#000000"/>
      </g>
      <path class="cls-1" d="M238.25,207.99v97.92l18.48,9.79,27.72-9.79v-39.17l9.24-58.75h18.48l9.24-9.79-27.72-39.17-18.48-29.38-27.72,19.58-36.96,48.96,9.24,9.79h18.48ZM395.34,198.19l-46.21-29.38-9.24,9.79,9.24,117.5-73.93,48.96h-27.72l-73.93-58.75,9.24-48.96v-68.54h-9.24l-46.21,29.38v97.92l9.24,19.58,110.89,78.33h27.72l110.89-78.33,18.48-19.58-9.24-97.92Z" fill="#000000"/>
      <g id="Reserve" class="cls-2">
        <path class="cls-1" d="M315.83,280.02c-4.51-2.95-18.72-12.24-23.23-15.19-.88-.57-1.39-.91-1.39-.91l-26,15-2,7v21l1,1s18.72,11.14,23.46,14.05c.97.6,2.18.87,2.54.95.8-.49,2.49-1.57,3-2,1.1-.67,22-13,22-13,0,0,.32-4.37.71-9.59.57-7.76,1.29-17.41,1.29-17.41,0,0-.51-.33-1.39-.91ZM311.21,303.93v1l-19,12h-3l-18-11-2-2v-20l1-1,19-13h2l19,12,1,2v20ZM294.21,289.93h-13l-4,2s.38.32.96.8c1.69,1.41,5.04,4.2,5.04,4.2h21l-5-6-5-1ZM189.21,286.93h2v10l2,1,3-1v-4l1-6h2l1-1-3-4-2-3-3,2-4,5,1,1ZM203.21,282.93l-1,1,1,12-8,5h-3l-8-6,1-5v-7h-1l-5,3v10l1,2,12,8h3l12-8,2-2-1-10-5-3ZM164.21,189.93v12l1,1,3-2v-10l-1-3-3,2ZM171.21,184.93v21l3,2,1-1v-20l-3-4-1,2ZM183.21,208.93v-23l-1-8-3,2v6l1,26,3-3ZM191.21,197.93l-1-12-3-4v24l4-3v-5ZM193.21,200.93h2l1-9-1-4-3-1,1,7v7ZM247.21,213.93l-5,3-3,5,1,2,6,2,6-3v-2l-3-6-2-1ZM245.21,223.93l-3-2,1-3,4-1,3,4-5,2ZM269.21,215.93l4-6-1-1-3-4-2-2h-8l-4,7v1l4,6,2,1,7-1,1-1ZM265.21,222.93l-2-2-1,1,1,2,2-1ZM272.21,217.93h3v-3l-3,1v2ZM274.21,204.93l1-3-2-1-2,1,1,3h2ZM265.21,198.93l-1-2h-2l-1,2,1,2,3-2ZM255.21,205.93v-3h-2l-2,1,2,1,2,1ZM252.21,216.93v1h3v-3h-2l-1,2Z" fill="#000000"/>
      </g>
    </g>
  </g>
</svg>