<?xml version="1.0" encoding="UTF-8"?>
<svg id="Layer_1" xmlns="http://www.w3.org/2000/svg" viewBox="0 0 1546.47 361.29">
  <defs>
    <style>
      .cls-1 {
        fill: #fff;
      }
    </style>
  </defs>
  <polygon class="cls-1" points="161.67 199.24 60.97 199.24 60.97 32.03 0 32.03 0 247.59 161.67 247.59 163.83 247.59 220.18 247.59 220.18 80.68 161.67 80.68 161.67 199.24"/>
  <path class="cls-1" d="M165.05,53.27c6.57,5.96,15.19,8.93,25.87,8.93s19.55-3.03,26.02-9.08c6.47-6.05,9.7-13.7,9.7-22.94s-3.29-16.06-9.85-21.71c-6.57-5.64-15.2-8.47-25.87-8.47s-19.3,2.98-25.87,8.93c-6.57,5.96-9.85,13.35-9.85,22.17s3.28,16.22,9.85,22.17Z"/>
  <path class="cls-1" d="M355.36,97.31c-3.41-4.03-7.31-7.42-11.7-10.16-9.85-6.16-22.38-9.24-37.57-9.24s-28.74,3.54-41.26,10.62c-12.52,7.08-22.43,17.04-29.72,29.87-7.29,12.83-10.93,28.08-10.93,45.73s3.64,32.95,10.93,45.88c7.28,12.93,17.19,22.89,29.72,29.87,12.52,6.98,26.28,10.47,41.26,10.47s26.53-3.13,36.49-9.39c3.65-2.3,6.99-5.03,10.01-8.19v74.55h58.51V80.68h-55.74v16.63ZM348.74,185.69c-3.19,5.96-7.39,10.47-12.63,13.55-5.24,3.08-11.14,4.62-17.71,4.62s-12.47-1.54-17.71-4.62c-5.24-3.08-9.45-7.59-12.63-13.55-3.19-5.95-4.77-13.14-4.77-21.56s1.59-15.6,4.77-21.56c3.18-5.95,7.39-10.47,12.63-13.55,5.23-3.08,11.13-4.62,17.71-4.62s12.47,1.54,17.71,4.62c5.23,3.08,9.44,7.6,12.63,13.55,3.18,5.96,4.77,13.14,4.77,21.56s-1.59,15.6-4.77,21.56Z"/>
  <path class="cls-1" d="M542.28,161.06c0,9.24-1.44,16.78-4.31,22.63-2.88,5.85-6.67,10.11-11.39,12.78-4.72,2.67-9.96,4-15.71,4-8.83,0-15.66-2.77-20.48-8.31-4.83-5.54-7.24-14.78-7.24-27.71v-83.76h-58.51v93.31c0,17.45,3.03,31.87,9.08,43.27,6.05,11.39,14.47,19.76,25.25,25.1,10.78,5.34,22.94,8.01,36.49,8.01,12.73,0,24.53-3.03,35.41-9.08,5.34-2.97,10.06-6.7,14.17-11.19v17.5h55.74V80.68h-58.51v80.37Z"/>
  <path class="cls-1" d="M618.34,53.27c6.57,5.96,15.19,8.93,25.87,8.93s19.55-3.03,26.02-9.08c6.47-6.05,9.7-13.7,9.7-22.94s-3.29-16.06-9.85-21.71c-6.57-5.64-15.2-8.47-25.87-8.47s-19.3,2.98-25.87,8.93c-6.57,5.96-9.85,13.35-9.85,22.17s3.28,16.22,9.85,22.17Z"/>
  <rect class="cls-1" x="614.95" y="80.68" width="58.51" height="166.91"/>
  <path class="cls-1" d="M806.8,94.97c-2.93-3.02-6.16-5.64-9.7-7.83-9.96-6.16-22.12-9.24-36.49-9.24-15.2,0-29,3.49-41.42,10.47-12.42,6.98-22.33,16.89-29.72,29.72-7.39,12.83-11.09,28.08-11.09,45.73s3.7,33.21,11.09,46.04c7.39,12.83,17.29,22.79,29.72,29.87,12.42,7.08,26.22,10.62,41.42,10.62s27.41-3.08,37.26-9.24c4.39-2.74,8.29-6.14,11.7-10.19v16.66h55.74V19.09h-58.51v75.88ZM803.1,185.54c-3.08,6.06-7.24,10.62-12.47,13.7s-11.14,4.62-17.71,4.62-12.78-1.54-18.01-4.62c-5.24-3.08-9.39-7.65-12.47-13.7-3.08-6.05-4.62-13.29-4.62-21.71s1.54-15.55,4.62-21.4c3.08-5.85,7.24-10.32,12.47-13.4,5.23-3.08,11.24-4.62,18.01-4.62s12.47,1.54,17.71,4.62,9.39,7.54,12.47,13.4,4.62,12.99,4.62,21.4-1.54,15.66-4.62,21.71Z"/>
  <path class="cls-1" d="M1023.28,85.76c-10.47-5.24-22.17-7.85-35.11-7.85-13.96,0-26.48,3.03-37.57,9.08-5.77,3.16-10.9,7.14-15.4,11.94v-18.25h-55.74v166.91h58.51v-80.68c0-9.24,1.43-16.73,4.31-22.48,2.87-5.74,6.88-10.01,12.01-12.78,5.13-2.77,10.78-4.16,16.94-4.16,8.62,0,15.34,2.72,20.17,8.16,4.82,5.44,7.24,14.12,7.24,26.02v85.92h58.51v-95.46c0-17.24-3.03-31.3-9.08-42.19-6.06-10.88-14.32-18.94-24.79-24.17Z"/>
  <path class="cls-1" d="M1073.78,53.27c6.57,5.96,15.19,8.93,25.87,8.93s19.55-3.03,26.02-9.08c6.47-6.05,9.7-13.7,9.7-22.94s-3.29-16.06-9.85-21.71c-6.57-5.64-15.19-8.47-25.87-8.47s-19.3,2.98-25.87,8.93c-6.57,5.96-9.85,13.35-9.85,22.17s3.28,16.22,9.85,22.17Z"/>
  <path class="cls-1" d="M1534.46,119.17c-8.01-12.93-19.15-23.04-33.41-30.33-14.27-7.29-30.54-10.93-48.81-10.93s-34.49,3.65-48.66,10.93c-14.17,7.29-25.3,17.4-33.41,30.33-.27.42-.51.85-.77,1.28v-42.55c-15.81,0-29.25,3.13-40.34,9.39-6.2,3.5-11.43,7.98-15.71,13.44v-20.06h-55.74v157.51l-13.55-38.33c-4.93,3.49-10.88,5.24-17.86,5.24-5.13,0-9.34-1.69-12.63-5.08-3.29-3.39-4.93-8.05-4.93-14.01v-55.43h38.19v-43.73h-38.19v-43.42h-58.51v43.42h-21.25v-6.16h-58.51v166.91h58.51v-117.02h21.25v56.05c0,21.35,5.95,37.31,17.86,47.89,11.9,10.58,28.53,15.86,49.89,15.86,7.8,0,15.29-.77,22.48-2.31,6.75-1.45,12.48-3.67,17.24-6.65v6.19h58.51v-76.68c0-14.57,3.7-25.1,11.09-31.56s17.04-9.7,28.95-9.7c2.26,0,4.36.05,6.31.15.65.04,1.35.09,2.08.16-4.36,10.24-6.54,21.53-6.54,33.87,0,16.84,4.05,31.77,12.16,44.81,8.11,13.04,19.25,23.25,33.41,30.64,14.17,7.39,30.38,11.09,48.66,11.09s34.54-3.7,48.81-11.09c14.27-7.39,25.41-17.6,33.41-30.64,8.01-13.04,12.01-27.97,12.01-44.81s-4-31.72-12.01-44.65ZM1482.73,185.54c-3.08,6.06-7.24,10.62-12.47,13.7-5.24,3.08-11.24,4.62-18.01,4.62s-12.47-1.54-17.71-4.62-9.45-7.65-12.63-13.7c-3.19-6.05-4.77-13.29-4.77-21.71s1.59-15.55,4.77-21.4c3.18-5.85,7.39-10.32,12.63-13.4s11.13-4.62,17.71-4.62,12.78,1.54,18.01,4.62c5.23,3.08,9.39,7.54,12.47,13.4,3.08,5.85,4.62,12.99,4.62,21.4s-1.54,15.66-4.62,21.71Z"/>
  <path class="cls-1" d="M1123.9,303.19c2.25-2.22,4.93-3.92,8.04-5.1,3.1-1.18,6.54-1.77,10.31-1.77s7.54.72,10.86,2.16,6.39,3.64,9.2,6.6l11.53-10.64c-3.77-4.36-8.41-7.69-13.91-9.98-5.51-2.29-11.7-3.44-18.57-3.44-6.21,0-11.9.98-17.07,2.94-5.17,1.96-9.68,4.75-13.53,8.37-3.84,3.62-6.82,7.87-8.92,12.75s-3.16,10.24-3.16,16.08,1.05,11.2,3.16,16.07,5.06,9.13,8.87,12.75c3.81,3.62,8.28,6.41,13.41,8.37,5.14,1.96,10.77,2.94,16.91,2.94,5.54,0,11.1-.85,16.68-2.55,5.58-1.7,10.48-4.14,14.69-7.32v-31.48h-16.41v22.78c-1.19.62-2.39,1.14-3.6,1.55-3.36,1.15-6.82,1.72-10.37,1.72s-7.08-.59-10.14-1.77c-3.07-1.18-5.73-2.9-7.98-5.16-2.25-2.25-3.99-4.89-5.21-7.93-1.22-3.03-1.83-6.36-1.83-9.98s.61-7.06,1.83-10.09c1.22-3.03,2.96-5.65,5.21-7.87Z"/>
  <path class="cls-1" d="M1224.61,305.86c-5.03-4.29-12.08-6.43-21.17-6.43-4.73,0-9.39.63-13.97,1.88-4.58,1.26-8.5,3.03-11.75,5.32l6.21,12.08c2.14-1.7,4.75-3.05,7.82-4.05,3.07-1,6.19-1.5,9.37-1.5,4.66,0,8.11,1.04,10.37,3.1,2.25,2.07,3.38,4.95,3.38,8.65h-13.75c-6.06,0-10.98.76-14.75,2.27-3.77,1.52-6.52,3.6-8.26,6.26-1.74,2.66-2.61,5.76-2.61,9.31s.89,6.47,2.66,9.2c1.77,2.73,4.32,4.9,7.65,6.48,3.33,1.59,7.32,2.38,11.97,2.38,5.25,0,9.53-1,12.86-2.99,2.25-1.35,4.02-3.14,5.32-5.33v7.44h16.19v-34.03c0-9.09-2.51-15.78-7.54-20.07ZM1209.87,347.15c-2.29,1.37-4.88,2.05-7.76,2.05-3.03,0-5.42-.65-7.15-1.94-1.74-1.29-2.61-3.05-2.61-5.27,0-2,.76-3.66,2.27-4.99,1.51-1.33,4.3-2,8.37-2h11.86v6.1c-1.04,2.66-2.7,4.68-4.99,6.04Z"/>
  <path class="cls-1" d="M1328.32,302.25c-3.66-1.88-7.85-2.83-12.58-2.83-5.69,0-10.74,1.37-15.13,4.1-2.51,1.56-4.61,3.44-6.34,5.63-1.39-2.26-3.15-4.12-5.3-5.58-4.1-2.77-8.89-4.16-14.36-4.16-4.88,0-9.22,1.05-13.03,3.16-2.2,1.21-4.09,2.77-5.71,4.63v-6.9h-16.52v59.64h17.29v-29.93c0-3.55.55-6.47,1.66-8.76,1.11-2.29,2.66-4.01,4.66-5.15,2-1.15,4.25-1.72,6.76-1.72,3.62,0,6.41,1.15,8.37,3.44,1.96,2.29,2.94,5.84,2.94,10.64v31.48h17.29v-29.93c0-3.55.55-6.47,1.66-8.76,1.11-2.29,2.66-4.01,4.66-5.15,2-1.15,4.25-1.72,6.76-1.72,3.62,0,6.43,1.15,8.42,3.44,2,2.29,2.99,5.84,2.99,10.64v31.48h17.29v-34.14c0-6.06-1.05-11.03-3.16-14.91-2.11-3.88-4.99-6.76-8.65-8.65Z"/>
  <path class="cls-1" d="M1455.42,333.63c-1.33-2.11-3.05-3.77-5.16-4.99-2.11-1.22-4.45-2.16-7.04-2.83-2.59-.67-5.15-1.16-7.7-1.5-2.55-.33-4.9-.72-7.04-1.16-2.14-.44-3.86-1.03-5.16-1.77-1.29-.74-1.94-1.85-1.94-3.33,0-1.62.89-2.96,2.66-3.99,1.77-1.03,4.58-1.55,8.43-1.55,2.73,0,5.56.32,8.48.94,2.92.63,5.82,1.79,8.7,3.49l5.76-12.31c-2.81-1.7-6.32-2.99-10.53-3.88s-8.35-1.33-12.42-1.33c-5.76,0-10.72.83-14.86,2.49-4.14,1.66-7.3,3.94-9.48,6.82-2.18,2.88-3.27,6.21-3.27,9.98,0,.84.04,1.64.12,2.41-.68-2.66-1.68-5.11-3-7.34-2.74-4.62-6.45-8.17-11.14-10.64-4.69-2.48-9.96-3.71-15.8-3.71s-11.49,1.31-16.3,3.94c-4.81,2.62-8.59,6.25-11.36,10.86-2.77,4.62-4.16,9.92-4.16,15.91s1.4,11.18,4.21,15.8c2.81,4.62,6.78,8.26,11.92,10.92,5.14,2.66,11.1,3.99,17.9,3.99,5.39,0,10.16-.83,14.3-2.49,4.14-1.66,7.57-4.05,10.31-7.15l-9.2-9.98c-2,1.92-4.2,3.36-6.6,4.32-2.4.96-5.19,1.44-8.37,1.44-3.55,0-6.63-.65-9.26-1.94-2.62-1.29-4.66-3.18-6.1-5.65-.78-1.34-1.34-2.81-1.7-4.38h45.1c.07-.74.15-1.53.22-2.38.07-.85.11-1.61.11-2.27,0-2.08-.16-4.06-.45-5.95.3.96.69,1.84,1.17,2.63,1.29,2.14,3.01,3.84,5.16,5.1,2.14,1.26,4.51,2.2,7.09,2.83,2.59.63,5.16,1.13,7.71,1.5,2.55.37,4.89.74,7.04,1.11,2.14.37,3.86.91,5.16,1.61,1.29.7,1.94,1.76,1.94,3.16,0,1.7-.83,3.03-2.49,3.99-1.66.96-4.49,1.44-8.48,1.44-3.62,0-7.3-.54-11.03-1.61-3.73-1.07-6.97-2.46-9.7-4.16l-5.76,12.42c2.73,1.85,6.45,3.38,11.14,4.6,4.69,1.22,9.59,1.83,14.69,1.83,5.99,0,11.07-.81,15.24-2.44,4.17-1.62,7.37-3.86,9.59-6.71,2.22-2.84,3.33-6.12,3.33-9.81,0-3.4-.67-6.15-2-8.26ZM1367.34,314.45c2.25-1.29,4.86-1.94,7.82-1.94s5.54.65,7.76,1.94c2.22,1.29,3.95,3.09,5.21,5.38.83,1.52,1.38,3.22,1.66,5.1h-29.36c.29-1.86.83-3.54,1.64-5.04,1.26-2.33,3.01-4.14,5.27-5.43Z"/>
</svg>